<?xml version="1.0" standalone="no"?>
<!DOCTYPE svg PUBLIC "-//W3C//DTD SVG 20010904//EN"
 "http://www.w3.org/TR/2001/REC-SVG-20010904/DTD/svg10.dtd">
<svg version="1.0" xmlns="http://www.w3.org/2000/svg"
 width="900.000000pt" height="900.000000pt" viewBox="0 0 900.000000 900.000000"
 preserveAspectRatio="xMidYMid meet">
<metadata>
Created by potrace 1.14, written by Peter Selinger 2001-2017
</metadata>
<g transform="translate(0.000000,900.000000) scale(0.100000,-0.100000)"
fill="#000000" stroke="none">
<path d="M4660 8384 c-515 -44 -891 -134 -1304 -310 -82 -35 -150 -64 -151
-64 -6 0 -29 97 -26 109 3 18 -232 -106 -396 -208 -1420 -882 -2127 -2558
-1767 -4186 240 -1080 924 -2011 1884 -2562 767 -441 1681 -610 2553 -472 70
11 133 19 139 17 6 -2 19 -26 28 -54 20 -58 3 -58 227 -3 637 155 1212 465
1721 929 l114 103 -443 443 -444 444 -55 -54 c-284 -275 -660 -494 -1051 -615
-106 -33 -296 -76 -375 -87 l-51 -6 -16 45 c-17 51 -15 57 22 57 47 0 263 49
381 86 393 123 694 299 1025 597 l50 45 -90 91 c-49 50 -94 91 -99 91 -5 0
-42 -32 -83 -70 -317 -302 -801 -527 -1259 -585 l-50 -6 -13 41 c-7 23 -15 48
-18 56 -4 10 4 14 29 14 54 0 242 36 358 69 325 92 661 282 908 515 l53 50
-38 38 c-20 21 -40 38 -44 38 -4 0 -44 -34 -89 -75 -252 -227 -579 -399 -910
-476 -126 -30 -280 -50 -300 -39 -10 5 -23 30 -30 55 l-13 45 -111 -6 c-191
-11 -445 21 -661 82 -710 204 -1277 799 -1445 1519 -73 315 -70 683 10 1000
73 291 221 582 412 810 129 154 338 343 461 415 l33 20 18 -55 c9 -30 19 -55
22 -55 3 0 38 19 77 42 638 372 1461 370 2100 -6 113 -66 267 -180 358 -264
l66 -61 36 37 c21 21 37 43 37 49 0 13 -121 122 -215 194 -272 209 -609 358
-949 419 -92 17 -154 20 -392 20 -244 0 -298 -3 -391 -21 -223 -42 -432 -115
-631 -219 l-113 -59 -9 25 c-25 64 -24 72 12 94 70 43 258 130 358 164 264 93
484 129 775 130 234 0 395 -19 601 -73 349 -92 698 -284 966 -530 36 -33 70
-61 75 -61 5 0 49 41 98 91 l90 90 -60 55 c-414 377 -887 604 -1420 679 -157
23 -556 20 -723 -5 -253 -37 -556 -133 -780 -246 l-103 -53 -9 25 c-28 72 -31
67 92 127 285 138 574 222 888 258 135 15 445 15 580 0 561 -63 1083 -298
1506 -678 l101 -91 442 442 442 443 -103 98 c-274 260 -627 501 -992 675 -388
186 -803 304 -1246 356 -127 14 -580 27 -680 18z m-1101 -1526 c15 -49 31 -34
-139 -145 -394 -259 -737 -664 -926 -1093 -97 -219 -171 -485 -206 -730 -17
-125 -17 -515 0 -640 44 -311 152 -647 288 -897 400 -735 1115 -1227 1944
-1339 112 -15 386 -20 609 -11 43 2 44 2 57 -43 7 -24 12 -45 11 -46 -11 -11
-330 -25 -447 -20 -574 26 -1080 209 -1533 553 -143 109 -393 362 -504 510
-426 569 -607 1257 -517 1963 100 781 555 1488 1234 1919 52 33 100 60 106 61
6 0 17 -19 23 -42z m121 -363 c7 -25 11 -47 9 -49 -2 -2 -39 -26 -81 -55 -158
-105 -374 -307 -495 -461 -206 -264 -356 -591 -430 -937 -26 -123 -28 -140
-28 -418 0 -263 2 -301 23 -402 92 -454 281 -818 592 -1137 334 -343 730 -553
1215 -642 58 -11 174 -19 329 -23 l239 -6 15 -43 c8 -24 11 -46 7 -50 -12 -13
-346 -14 -459 -3 -696 72 -1312 446 -1699 1031 -141 213 -263 500 -321 755
-76 334 -73 724 9 1063 134 556 471 1038 960 1371 48 33 91 58 95 56 4 -2 13
-25 20 -50z"/>
</g>
</svg>
